<?xml version="1.0" encoding="iso-8859-1"?>
<!-- Generator: Adobe Illustrator 16.0.0, SVG Export Plug-In . SVG Version: 6.00 Build 0)  -->
<!DOCTYPE svg PUBLIC "-//W3C//DTD SVG 1.1//EN" "http://www.w3.org/Graphics/SVG/1.1/DTD/svg11.dtd">
<svg version="1.1" id="Capa_1" xmlns="http://www.w3.org/2000/svg" xmlns:xlink="http://www.w3.org/1999/xlink" x="0px" y="0px"
	 width="45.985px" height="45.985px" viewBox="0 0 45.985 45.985" style="enable-background:new 0 0 45.985 45.985;"
	 xml:space="preserve">
<g>
	<g>
		<path d="M33.376,12.586c-0.137-3.598-0.918-5.976-2.092-7.6h0.002c-0.821-1.288-2.597-2.66-3.688-3.327
			c-7.179-4.38-11.069,1.221-11.517,1.918c-0.66,0.236-4.769,2.044-3.58,8.438c-0.013,0.212-0.023,0.429-0.032,0.65
			c-0.873,0.404-1.527,1.341-1.353,3.462c0.186,2.249,1.316,3.262,2.543,3.524c1.737,4.256,5.184,7.77,9.264,7.77
			c4.068,0,7.509-3.496,9.251-7.738c1.291-0.204,2.519-1.204,2.711-3.555C35.071,13.881,34.325,12.949,33.376,12.586z
			 M22.925,25.442c-4.23,0-7.719-5.164-8.382-10.05c0.316-1.76,1.292-5.547,4.093-8.339c2.153,2.327,6.092,5.005,12.723,4.777
			c0.04,0.598,0.061,1.241,0.061,1.931C31.419,19.052,27.63,25.442,22.925,25.442z"/>
		<path d="M22.637,15.717c0-0.134-0.009-0.258-0.025-0.37h0.781c-0.016,0.112-0.024,0.236-0.024,0.37
			c0,2.107,2.091,2.104,3.097,2.104c1.005,0,3.097-0.003,3.097-2.11S27.471,13.6,26.466,13.6c-0.71,0-1.959,0.011-2.634,0.739
			h-1.659c-0.674-0.728-1.924-0.739-2.633-0.739c-1.006,0-3.097,0.002-3.097,2.109s2.091,2.107,3.097,2.107
			C20.544,17.818,22.637,17.825,22.637,15.717z M26.465,14.593c1.792,0,2.106,0.361,2.106,1.118c0,0.757-0.315,1.118-2.106,1.118
			c-1.792,0-2.106-0.36-2.106-1.118C24.358,14.953,24.673,14.593,26.465,14.593z M17.432,15.712c0-0.757,0.315-1.118,2.107-1.118
			s2.107,0.361,2.107,1.118c0,0.757-0.316,1.118-2.107,1.118C17.748,16.829,17.432,16.469,17.432,15.712z"/>
		<path d="M32.089,27.072l-1.199-0.297l-7.941,18.063L15.011,26.78l-1.154,0.293c-4.714,1.181-8.004,5.415-8.004,10.275v6.38
			c0,1.255,0.984,2.257,2.241,2.257h29.717c1.257,0,2.322-1.002,2.322-2.258v-6.38C40.132,32.487,36.803,28.253,32.089,27.072z
			 M28.633,39.545l2.235-2.417c0.527-0.573,1.433-0.579,1.959-0.007l2.236,2.424H28.633z"/>
		<path d="M23.028,41.534L25.68,34.8l-1.229-1.23c0.776-0.099,1.32-0.857,1.131-1.645l-0.545-2.269
			c-0.146-0.604-0.685-1.035-1.305-1.035h-1.458c-0.621,0-1.16,0.432-1.306,1.035l-0.544,2.266
			c-0.189,0.787,0.354,1.547,1.131,1.646l-1.23,1.231L23.028,41.534z"/>
	</g>
</g>
<g>
</g>
<g>
</g>
<g>
</g>
<g>
</g>
<g>
</g>
<g>
</g>
<g>
</g>
<g>
</g>
<g>
</g>
<g>
</g>
<g>
</g>
<g>
</g>
<g>
</g>
<g>
</g>
<g>
</g>
</svg>
